<?xml version="1.0" encoding="UTF-8" standalone="no"?>
<!-- Created with Inkscape (http://www.inkscape.org/) -->

<svg
   width="115.48546mm"
   height="24.108089mm"
   viewBox="0 0 115.48546 24.108089"
   version="1.1"
   id="svg5"
   sodipodi:docname="kruskalC.svg"
   inkscape:version="1.1.1 (3bf5ae0d25, 2021-09-20)"
   xmlns:inkscape="http://www.inkscape.org/namespaces/inkscape"
   xmlns:sodipodi="http://sodipodi.sourceforge.net/DTD/sodipodi-0.dtd"
   xmlns="http://www.w3.org/2000/svg"
   xmlns:svg="http://www.w3.org/2000/svg">
  <sodipodi:namedview
     id="namedview7"
     pagecolor="#505050"
     bordercolor="#ffffff"
     borderopacity="1"
     inkscape:pageshadow="0"
     inkscape:pageopacity="0"
     inkscape:pagecheckerboard="1"
     inkscape:document-units="mm"
     showgrid="false"
     showborder="false"
     inkscape:zoom="2.0000001"
     inkscape:cx="209.74999"
     inkscape:cy="65.749998"
     inkscape:window-width="1366"
     inkscape:window-height="705"
     inkscape:window-x="-8"
     inkscape:window-y="-8"
     inkscape:window-maximized="1"
     inkscape:current-layer="layer1"
     inkscape:snap-bbox="true"
     inkscape:snap-bbox-edge-midpoints="false"
     inkscape:snap-bbox-midpoints="false"
     inkscape:bbox-nodes="false"
     inkscape:bbox-paths="false"
     inkscape:snap-intersection-paths="false"
     inkscape:object-nodes="false"
     inkscape:snap-smooth-nodes="false" />
  <defs
     id="defs2">
    <inkscape:path-effect
       effect="offset"
       id="path-effect103330"
       is_visible="true"
       lpeversion="1"
       linejoin_type="miter"
       unit="px"
       offset="6.7"
       miter_limit="4"
       attempt_force_join="false"
       update_on_knot_move="true" />
  </defs>
  <g
     inkscape:label="Layer 1"
     inkscape:groupmode="layer"
     id="layer1"
     transform="translate(-59.695794,-87.818924)">
    <path
       id="path103184"
       style="font-style:normal;font-variant:normal;font-weight:bold;font-stretch:normal;font-size:25.4px;line-height:1.25;font-family:'Harlow Solid Italic';-inkscape-font-specification:'Harlow Solid Italic,  Bold';fill:#ff2442;fill-opacity:1;stroke:none;stroke-width:1.00157;stroke-miterlimit:4;stroke-dasharray:none"
       d="M 32.339844,0 C 23.591889,0 15.918188,3.3318117 9.6015625,9.6484375 3.3143261,15.935674 0,23.579185 0,32.292969 c 0,6.114924 1.8556384,11.54137 5.7402344,16.167969 3.5045441,4.173949 7.7116446,6.543514 12.8691406,7.115234 l -2.085937,5.132812 -0.566407,1.369141 -0.01953,0.04883 c -0.733238,1.85466 -1.265625,3.915543 -1.265625,6.025391 0,3.528201 1.301882,6.070248 3.738281,8.285156 2.321124,2.110115 5.134852,3.148437 8.210938,3.148438 7.241273,0 11.699922,-4.901173 14.236328,-11.242188 l 3.189453,-7.839844 6.441406,17.40625 0.0098,0.02539 c 1.550375,4.087352 3.890207,8.133989 7.109375,10.296875 3.260558,2.215665 7.889212,2.884765 12.466797,2.884766 h 15.5625 c 3.749349,0 7.517569,-0.832792 10.599609,-3.220704 3.252719,-2.486213 4.725867,-5.731941 4.892587,-9.576172 h 4.47656 c 3.42206,0 6.97732,-0.746339 9.87695,-2.972656 0.0124,-0.0094 0.0208,-0.01984 0.0332,-0.0293 2.83044,2.008064 6.09211,3.001954 9.63672,3.001953 h 6.84374 c 2.28471,0 4.3184,-0.43693 6.16797,-1.261718 1.72379,0.779566 3.593,1.261718 5.55078,1.261718 h 8.39063 c 2.6395,0 5.35275,-0.458168 7.78906,-1.68164 2.0794,1.028829 4.40829,1.681641 6.83594,1.68164 h 9.79687 c 4.97323,0 9.4397,-1.360268 13.32618,-4.08789 0.43001,0.572491 0.70864,1.199178 1.27929,1.730469 l 0.0879,0.08008 0.0899,0.07813 c 2.28439,1.979806 4.94761,2.85547 7.81054,2.855468 6.82011,0 11.22106,-4.520283 13.61719,-10.421874 l 0.50586,-1.248047 3.83398,5.734375 0.58986,0.886718 0.0293,0.04102 c 1.97119,2.861398 4.63588,5.007813 8.93945,5.007812 3.42142,0 6.35075,-1.364466 8.66991,-3.609374 0.43747,-0.417669 0.68309,-0.979849 1.06055,-1.447266 3.27234,2.962382 7.10885,4.400391 11.73829,4.40039 h 5.34375 c 2.22363,0 4.28609,-0.549671 6.19725,-1.443359 1.85304,0.921665 3.91381,1.443361 6.08399,1.443359 h 6 c 2.94625,0 5.92842,-0.614321 8.5625,-2.164062 2.52879,1.532557 5.38424,2.164063 8.21875,2.164062 h 8.4375 c 3.42259,0 6.97904,-0.745535 9.8789,-2.972656 3.30602,-2.511872 4.74219,-5.820269 4.74219,-9.773437 0,-5.619121 -3.50861,-8.871658 -7.89843,-10.181641 l 14.76367,-36.322266 0.52929,-1.298828 0.0137,-0.0332 c 0.67602,-1.712579 1.16992,-3.664039 1.16992,-5.648437 0,-3.3434614 -1.17429,-5.8029408 -3.49805,-7.9902346 -2.2076,-2.111099 -4.96677,-3.1621094 -7.93555,-3.1621094 -6.25196,0 -10.832,3.9117038 -13.08789,9.404297 l -0.004,0.0078 -0.52149,1.279297 -11.85937,29.175782 c 0.008,-0.167033 0.0625,-0.329205 0.0625,-0.496094 0,-3.301922 -1.10335,-5.829063 -3.49805,-8.083985 -2.2693,-2.169842 -5.07376,-3.162109 -8.0293,-3.162109 -2.29333,0 -4.30029,0.55127 -6.10351,1.455078 -2.59113,-1.408891 -5.53789,-2.111328 -8.80274,-2.111328 -6.16633,0 -11.54997,2.450513 -16.16797,6.578125 -0.52504,-0.959502 -1.05954,-1.908216 -1.96289,-2.779297 -2.23056,-2.150897 -5.00396,-3.142578 -7.93164,-3.142578 -0.73365,0 -1.44555,0.115787 -2.15234,0.248047 l 4.13867,-10.193359 0.50977,-1.25 0.002,-0.0059 c 0.71353,-1.740648 1.24805,-3.719496 1.24805,-5.771484 0,-3.3661864 -1.17777,-5.8406528 -3.53321,-8.0390628 C 228.80134,1.9786564 226.06172,0.9375 223.07422,0.9375 c -6.25196,0 -10.832,3.9116918 -13.08789,9.404297 l -0.004,0.0078 -0.52344,1.283203 -6.43741,15.8672 h -14.76367 c -0.47061,-0.644011 -1.00593,-1.260532 -1.64843,-1.839844 -2.14474,-1.969363 -4.77306,-2.972656 -7.64454,-2.972656 -5.61978,0 -9.48873,3.848745 -11.69922,8.224609 l -0.0156,0.03125 -4.08984,8.304688 c -0.22802,-2.835051 -1.24182,-5.112286 -3.3418,-7.072266 -2.22019,-2.072177 -4.95977,-3.113281 -7.94727,-3.113281 -4.89896,0 -8.36201,2.39881 -10.86328,5.84375 -0.58891,-1.242005 -1.41993,-2.37498 -2.57031,-3.419922 -2.24199,-2.070537 -4.98271,-3.080078 -7.94141,-3.080078 -5.50354,0 -9.15486,2.965243 -11.66211,7.085938 -2.00685,-4.40778 -6.90586,-6.429688 -11.86914,-6.429688 h -9.248043 c -1.748702,-4.098748 -5.24058,-6.421875 -9.970703,-6.421875 -1.013607,0 -1.857272,0.265505 -2.736328,0.476563 2.677454,-2.99275 5.076172,-6.763027 5.076172,-10.605469 0,-3.3369304 -0.979373,-6.0038798 -3.490235,-8.4609378 C 84.267257,1.7360404 81.29986,0.609375 78.136719,0.609375 c -4.672083,0 -8.898978,2.8808034 -12.107422,6.2402344 L 56.337891,16.982422 C 55.316403,12.821797 53.124541,9.2352176 49.589844,6.1503906 44.754189,1.9301828 38.935576,0 32.339844,0 Z m 54.255859,4.0507812 c 0.0087,0.00868 0.02058,0.010819 0.0293,0.019531 l -0.07617,-0.074219 c 0.01836,0.017783 0.02868,0.036882 0.04687,0.054687 z M 138.4375,31.486328 c 0.016,0.01476 0.0368,0.01833 0.0527,0.0332 l -0.0898,-0.08203 c 0.0166,0.01495 0.0206,0.03385 0.0371,0.04883 z m 48.17188,-5.826172 c 0.0166,0.01527 0.0381,0.01977 0.0547,0.03516 l -0.0957,-0.08789 c 0.0179,0.01598 0.0233,0.03672 0.041,0.05273 z m 93.19726,6.564453 c 0.0141,0.01345 0.0329,0.01575 0.0469,0.0293 l -0.082,-0.07813 c 0.0161,0.01501 0.0192,0.0338 0.0352,0.04883 z M 316.65039,4.0996094 c 0.0139,0.013311 0.033,0.0159 0.0469,0.029297 l -0.082,-0.078125 c 0.0159,0.014841 0.0194,0.033962 0.0352,0.048828 z m -9.82227,71.2480466 c -0.0104,0.0079 -0.0169,0.01747 -0.0273,0.02539 l 0.0586,-0.04492 c -0.01,0.0077 -0.0213,0.01189 -0.0313,0.01953 z m -71.52148,0.01953 c -0.0112,0.01073 -0.0161,0.02641 -0.0273,0.03711 l 0.0625,-0.06055 c -0.0103,0.01006 -0.0248,0.01342 -0.0352,0.02344 z m -119.82422,-0.01953 c -0.0101,0.0077 -0.0153,0.01775 -0.0254,0.02539 l 0.0586,-0.04492 c -0.0104,0.008 -0.0228,0.01154 -0.0332,0.01953 z M 96.236328,87.896484 c -0.0112,0.0086 -0.01806,0.0188 -0.0293,0.02734 l 0.06641,-0.05078 c -0.0118,0.0092 -0.02529,0.01428 -0.03711,0.02344 z m -38.628906,0.335938 c -0.01205,-0.0082 -0.02705,-0.01326 -0.03906,-0.02148 l 0.07031,0.04687 c -0.01091,-0.0073 -0.02036,-0.01807 -0.03125,-0.02539 z M 357.91016,5.0585938 v 7.3125002 c -2.68946,0.317501 -5.07203,1.299334 -7.04493,3.095703 -2.58947,-2.22202 -5.73664,-3.283203 -9.06835,-3.283203 -2.83814,0 -5.60094,0.610332 -8.15235,2.251953 -2.31956,1.488792 -4.07179,3.535972 -5.23242,5.988281 l -0.004,0.0098 -0.006,0.0098 c -1.09462,2.332783 -1.58593,4.739112 -1.58593,7.283203 0,2.758384 0.59166,5.364711 1.84765,7.841797 l 0.0137,0.02539 0.0137,0.02539 c 1.40206,2.708062 3.38964,4.763184 6.1875,6.162109 l 0.0273,0.01367 0.0254,0.01367 c 2.48875,1.216726 5.13582,1.710937 7.84961,1.710937 2.69994,0 5.42262,-0.442152 8.13867,-1.240234 l 1.57813,-0.464844 c 1.92391,1.117747 4.08289,1.705078 6.50195,1.705078 1.01278,0 2.01605,-0.166408 3.00977,-0.390625 h 6.30664 7.63281 10.39062 v -0.570312 c 1.78042,0.649058 3.64539,0.960937 5.31641,0.960937 1.48664,0 3.13682,-0.358094 4.49023,-0.753906 l 2.5879,-0.755859 c 2.2314,1.0014 4.57193,1.509765 6.96874,1.509765 2.1933,0 4.35436,-0.476789 6.42579,-1.310547 v 0.919922 h 18.02343 v -12.74414 l 6.32813,2.347656 V 13.560547 l -5.29492,-1.134766 c -0.72645,-0.155668 -1.48226,-0.242187 -2.26367,-0.242187 -0.95498,0 -1.82997,0.19719 -2.70899,0.390625 H 412.1287 v 0.939453 c -2.07175,-0.845839 -4.22174,-1.330078 -6.42579,-1.330078 -1.72467,0 -3.41249,0.316779 -5.0664,0.8125 v -0.421875 h -3.67188 V 8.3378906 l -10.625,1.2207032 v -3.734375 h -10.39062 v -0.765625 z m -24.26563,9.3769532 c 0.002,-0.0015 0.003,-0.0043 0.006,-0.0059 l -0.0117,0.0078 c 0.002,-0.0012 0.004,-7.41e-4 0.006,-0.002 z m 29.35742,-1.865235 0.1211,0.03125 c -0.0204,-0.0053 -0.0401,-0.0026 -0.0605,-0.0078 -0.0213,-0.0052 -0.0392,-0.01831 -0.0605,-0.02344 z m 34.68946,1.542969 c -0.006,0.0033 -0.01,0.0084 -0.0156,0.01172 -0.006,0.0035 -0.0132,0.0043 -0.0195,0.0078 z m 16.02343,0 0.0547,0.03125 c -0.009,-0.0049 -0.0186,-0.0049 -0.0273,-0.0098 -0.0107,-0.0059 -0.0166,-0.01564 -0.0274,-0.02149 z m 5.8086,6.085938 0.0273,0.05273 c -0.005,-0.0096 -0.0128,-0.01576 -0.0176,-0.02539 -0.004,-0.0089 -0.005,-0.01843 -0.01,-0.02734 z m -53.55274,21.328125 -0.0293,0.01758 c 0.004,-0.0026 0.006,-0.0072 0.01,-0.0098 0.006,-0.004 0.0134,-0.0038 0.0195,-0.0078 z"
       transform="matrix(0.26458333,0,0,0.26458333,59.695794,87.818924)" />
    <path
       id="text4643"
       style="font-style:normal;font-variant:normal;font-weight:bold;font-stretch:normal;font-size:25.4px;line-height:1.25;font-family:'Harlow Solid Italic';-inkscape-font-specification:'Harlow Solid Italic,  Bold';fill:#ffffff;fill-opacity:1;stroke:none;stroke-width:0.999999"
       d="m 13.232422,-74.822266 c -6.875,0 -12.8750002,2.5625 -18.0000001,7.6875 -5.0937499,5.09375 -7.6406249,11.0625 -7.6406249,17.90625 0,4.59375 1.390625,8.546875 4.1718749,11.859375 2.7812499,3.3125 6.125,4.96875 10.03125,4.96875 2.0312499,0 3.71875,-0.5625 5.0625,-1.6875 1.375,-1.15625 2.0625,-2.609375 2.0625,-4.359375 0,-2.09375 -1.1875001,-3.5625 -3.5625,-4.40625 -3.90625,-1.40625 -5.85937502,-3.921875 -5.85937502,-7.546875 0,-3.3125 1.26562503,-6.296875 3.79687502,-8.953125 2.5624999,-2.6875 5.4375,-4.03125 8.6250001,-4.03125 1.78125,0 3.328125,0.5625 4.640625,1.6875 1.34375,1.09375 2.015625,2.40625 2.015625,3.9375 0,1.75 -0.921875,4.90625 -2.765625,9.46875 l -12.1875001,30 -0.5625,1.359375 c -0.53125,1.34375 -0.796875,2.53125 -0.796875,3.5625 0,1.28125 0.515625,2.390625 1.546875,3.328125 1.03125,0.9375004 2.265625,1.4062504 3.703125,1.4062504 3.4687501,0 6.1406251,-2.3437504 8.0156251,-7.0312504 l 9.703125,-23.859375 12.421875,33.5625004 c 1.375,3.6249999 2.90625,5.99999999 4.59375,7.125 1.6875,1.15625 4.59375,1.734375 8.71875,1.734375 h 15.5625 c 2.78125,0 4.953125,-0.609375 6.515625,-1.828125 1.5625,-1.18750001 2.34375,-2.8437501 2.34375,-4.96875 0,-3.09375 -2.203125,-4.640625 -6.609375,-4.640625 h -15.1875 c -2.875,0 -4.75,-1.1562501 -5.625,-3.4687504 l -9.890625,-26.90625 22.40625,-23.34375 c 2.53125,-2.65625 3.796875,-4.90625 3.796875,-6.75 0,-1.5 -0.5,-2.734375 -1.5,-3.703125 -1,-1 -2.25,-1.5 -3.75,-1.5 -2.1875,0 -4.609375,1.390625 -7.265625,4.171875 l -24.609375,25.734375 1.640625,-3.984375 c 1.625,-4 2.4375,-7.59375 2.4375,-10.78125 0,-4.5 -1.71875,-8.25 -5.15625,-11.25 -3.4375,-3 -7.71875,-4.5 -12.84375,-4.5 z m 190.734378,0.9375 c -3.15625,0 -5.45313,1.75 -6.89063,5.25 l -0.51562,1.265625 -20.0625,49.453125 -0.51563,1.265625 c -0.5,1.1875 -0.75,2.234375 -0.75,3.140625 0,1.1875 0.45313,2.203125 1.35938,3.046875 0.9375,0.8125004 2.07812,1.2187504 3.42187,1.2187504 3.25,0 5.71875,-2.0781254 7.40625,-6.2343754 l 5.25,-12.984375 10.875,16.265625 0.5625,0.84375 c 0.96875,1.4062504 2.10938,2.1093754 3.42188,2.1093754 1.5,0 2.84375,-0.578125 4.03125,-1.7343754 1.21875,-1.15625 1.82812,-2.453125 1.82812,-3.890625 0,-0.90625 -0.45312,-2.0625 -1.35937,-3.46875 l -7.26563,-11.390625 6.98438,-5.109375 1.07812,-0.796875 c 2.3125,-1.71875 3.46875,-3.625 3.46875,-5.71875 0,-1.25 -0.4375,-2.296875 -1.3125,-3.140625 -0.875,-0.84375 -1.96875,-1.265625 -3.28125,-1.265625 -1.5625,0 -3.4375,0.8125 -5.625,2.4375 l -10.54687,7.828125 11.95312,-29.4375 0.51563,-1.265625 c 0.5,-1.21875 0.75,-2.296875 0.75,-3.234375 0,-1.21875 -0.46875,-2.265625 -1.40625,-3.140625 -0.9375,-0.875 -2.0625,-1.3125 -3.375,-1.3125 z m 85.64062,0 c -3.15625,0 -5.45312,1.75 -6.89062,5.25 l -0.51563,1.265625 -18.9375,46.59375 c -0.90625,2.25 -1.35937,3.859375 -1.35937,4.828125 0,1.84375 0.67187,3.3125 2.01562,4.40625 1.34375,1.09375 3.17188,1.6406254 5.48438,1.6406254 h 8.4375 c 2.5,0 4.4375,-0.5312504 5.8125,-1.5937504 1.40625,-1.0625 2.10937,-2.546875 2.10937,-4.453125 0,-2.78125 -1.98437,-4.171875 -5.95312,-4.171875 h -4.92188 l 18.23438,-44.859375 0.51562,-1.265625 c 0.46875,-1.1875 0.70313,-2.25 0.70313,-3.1875 0,-1.21875 -0.46875,-2.265625 -1.40625,-3.140625 -0.90625,-0.875 -2.01563,-1.3125 -3.32813,-1.3125 z m 55.89453,4.121094 v 9.25 c -0.63541,-0.614583 -1.19271,-1.057291 -1.67187,-1.328125 -0.47917,-0.270833 -0.97917,-0.46875 -1.5,-0.59375 -0.52084,-0.135417 -1.09375,-0.203125 -1.71875,-0.203125 -2.3125,0 -4.11458,0.901041 -5.40625,2.703125 -1.29167,1.791668 -1.9375,4.036457 -1.9375,6.734375 0,2.552084 0.57812,4.609375 1.73437,6.171875 1.15625,1.552084 2.78646,2.328125 4.89063,2.328125 1.28125,0 2.38541,-0.302083 3.3125,-0.90625 0.9375,-0.604167 1.70312,-1.510416 2.29687,-2.71875 v 3.234375 h 4.64063 v -24.671875 z m 10.40625,0.765625 v 3.859375 h 4.625 v -3.859375 z m 15.25,3.328125 -4.625,0.53125 v 2.890625 h -1.92187 v 2.890625 h 1.92187 v 9.03125 c 0,1.427084 0.20834,2.510416 0.625,3.25 0.41667,0.729167 1.04167,1.307292 1.875,1.734375 0.83334,0.427084 2.00521,0.640625 3.51563,0.640625 0.63542,0 1.50521,-0.161458 2.60937,-0.484375 v -2.8125 c -0.55208,0.145834 -1.02604,0.21875 -1.42187,0.21875 -0.84375,0 -1.48438,-0.213541 -1.92188,-0.640625 -0.4375,-0.4375 -0.65625,-1.276041 -0.65625,-2.515625 v -8.421875 h 3.67188 v -2.890625 h -3.67188 z m -48.46875,3.03125 c -1.79166,0 -3.30208,0.395833 -4.53125,1.1875 -1.21875,0.78125 -2.15104,1.854166 -2.79687,3.21875 -0.63542,1.354167 -0.95313,2.833333 -0.95313,4.4375 0,1.729167 0.375,3.333333 1.125,4.8125 0.76042,1.468751 1.83854,2.552083 3.23438,3.25 1.40625,0.6875 3.04166,1.03125 4.90625,1.03125 1.96875,0 4.05208,-0.322916 6.25,-0.96875 v -3.25 c -1.94792,0.71875 -3.69792,1.078125 -5.25,1.078125 -1.20834,0 -2.17188,-0.192708 -2.89063,-0.578125 -0.71875,-0.395833 -1.29166,-0.927083 -1.71875,-1.59375 -0.41666,-0.666667 -0.67708,-1.578124 -0.78125,-2.734375 h 10.64063 c 0,-3.802085 -0.65625,-6.401041 -1.96875,-7.796875 -1.3125,-1.395834 -3.06771,-2.09375 -5.26563,-2.09375 z m 63.90625,0 c -1.86458,0 -3.46354,0.369791 -4.79687,1.109375 -1.33334,0.729167 -2.34375,1.796875 -3.03125,3.203125 -0.6875,1.395834 -1.03125,2.947916 -1.03125,4.65625 0,1.718751 0.34896,3.28125 1.04687,4.6875 0.69792,1.406251 1.70834,2.473958 3.03125,3.203125 1.33334,0.71875 2.92709,1.078125 4.78125,1.078125 1.86459,0 3.45834,-0.359375 4.78125,-1.078125 1.33334,-0.729167 2.34896,-1.796874 3.04688,-3.203125 0.69792,-1.40625 1.04687,-2.968749 1.04687,-4.6875 0,-1.708334 -0.34895,-3.260416 -1.04687,-4.65625 -0.6875,-1.40625 -1.69792,-2.473958 -3.03125,-3.203125 -1.32292,-0.739584 -2.92188,-1.109375 -4.79688,-1.109375 z m 23.21875,0 c -1.17708,0 -2.24479,0.328125 -3.20312,0.984375 -0.95834,0.65625 -1.71354,1.536458 -2.26563,2.640625 v -3.234375 h -4.625 v 17.15625 h 4.625 v -10.890625 c 0.58334,-0.9375 1.25,-1.635416 2,-2.09375 0.75,-0.46875 1.58334,-0.703125 2.5,-0.703125 0.57292,0 1.18229,0.119792 1.82813,0.359375 v -4.125 c -0.29167,-0.0625 -0.57813,-0.09375 -0.85938,-0.09375 z m -53.90625,0.390625 v 17.15625 h 4.625 v -17.15625 z m -33.35937,2.5 c 0.83333,0 1.51041,0.338542 2.03125,1.015625 0.53125,0.677084 0.79687,1.802083 0.79687,3.375 h -6.15625 c 0.14584,-1.4375 0.51042,-2.526041 1.09375,-3.265625 0.58334,-0.75 1.32813,-1.125 2.23438,-1.125 z m 64.04687,0 c 1.3125,0 2.29688,0.578125 2.95313,1.734375 0.66667,1.156251 1,2.604166 1,4.34375 0,1.750001 -0.33333,3.203125 -1,4.359375 -0.65625,1.145834 -1.64063,1.71875 -2.95313,1.71875 -1.30208,0 -2.28645,-0.572916 -2.95312,-1.71875 -0.65625,-1.15625 -0.98438,-2.609374 -0.98438,-4.359375 0,-1.739584 0.32813,-3.187499 0.98438,-4.34375 0.66667,-1.15625 1.65104,-1.734375 2.95312,-1.734375 z m -44.67187,0.109375 c 0.59375,0 1.17708,0.130208 1.75,0.390625 0.57292,0.260417 1.18229,0.755208 1.82812,1.484375 v 6.796875 c -0.5625,0.791667 -1.1875,1.432292 -1.875,1.921875 -0.67708,0.479167 -1.36458,0.71875 -2.0625,0.71875 -1.09375,0 -1.93229,-0.473958 -2.51562,-1.421875 -0.57292,-0.958334 -0.85938,-2.239583 -0.85938,-3.84375 0,-1.625001 0.30729,-3.036458 0.92188,-4.234375 0.625,-1.208334 1.5625,-1.8125 2.8125,-1.8125 z m -273.285158,7.457031 c -2.34375,0 -4.15625,1.578125 -5.4375,4.734375 l -5.296875,13.078125 c -0.6875,1.71875 -1.03125,2.9375 -1.03125,3.65625 0,1.25 0.46875,2.296875 1.40625,3.140625 0.9375,0.84375 2.109375,1.265625 3.515625,1.265625 2.3125,0 4.1875,-1.75 5.625,-5.25 l 1.59375,-3.9375 h 4.875 c -2.6875,3 -4.5625,5.53125 -5.625,7.59375 -1.0625,2.0625 -1.59375,4.1875 -1.59375,6.375 0,3.4375 0.984375,6.234375 2.953125,8.390625 2,2.15625 4.5625,3.2343754 7.6875,3.2343754 h 9.1875 c 2.5,0 4.4375,-0.5312504 5.8125,-1.5937504 1.40625,-1.0625 2.109375,-2.5625 2.109375,-4.5 0,-2.75 -1.984375,-4.125 -5.953125,-4.125 h -5.90625 c -2.875,0 -4.3125,-1.296875 -4.3125,-3.890625 0,-2.59375 2.484375,-6.265625 7.453125,-11.015625 l 0.515625,-0.46875 c 5.1875,0 7.78125,-1.984375 7.78125,-5.953125 0,-2.875 -2.046875,-4.3125 -6.140625,-4.3125 h -10.96875 c -1.46875,0 -2.390625,-0.09375 -2.765625,-0.28125 -0.375,-0.1875 -0.65625,-0.65625 -0.84375,-1.40625 l -0.375,-1.453125 c -0.53125,-2.1875 -1.953125,-3.28125 -4.265625,-3.28125 z m 91.218748,0.04687 c -2.28125,0 -4.1875,1.515625 -5.71875,4.546875 l -6.23437,12.65625 c -0.90625,1.8125 -1.35938,3.265625 -1.35938,4.359375 0,1.15625 0.5,2.1875 1.5,3.09375 1.03125,0.875 2.1875,1.3125 3.46875,1.3125 2.53125,0 4.48438,-1.546875 5.85938,-4.640625 l 0.89062,-2.15625 2.0625,4.03125 c 0.8125,1.5625 1.21875,2.921875 1.21875,4.078125 0,3.15625 -2.17187,4.734375 -6.51562,4.734375 h -5.4375 c -2.46875,0 -4.40625,0.546875 -5.8125,1.640625 -1.40625,1.0625 -2.10938,2.546875 -2.10938,4.453125 0,2.75 1.98438,4.1250004 5.95313,4.1250004 h 9.79687 c 4.375,0 8.03125,-1.3125004 10.96875,-3.9375004 2.9375,-2.65625 4.40625,-5.953125 4.40625,-9.890625 0,-3.53125 -1.35937,-7.1875 -4.07812,-10.96875 l -2.67188,-3.703125 c -1.46875,-2.0625 -2.20312,-4.078125 -2.20312,-6.046875 0,-0.53125 0.0625,-1.140625 0.1875,-1.828125 0.1875,-0.9375 0.28125,-1.546875 0.28125,-1.828125 0,-1.09375 -0.4375,-2.03125 -1.3125,-2.8125 -0.875,-0.8125 -1.92188,-1.21875 -3.14063,-1.21875 z m -48.46875,5.71875 c -3.09375,0 -5.53125,2.171875 -7.3125,6.515625 l -6.374998,15.65625 c -0.8125,2 -1.21875,3.75 -1.21875,5.25 0,2.625 0.90625,4.796875 2.71875,6.515625 1.812498,1.71875 4.093748,2.5781254 6.843748,2.5781254 h 6.84375 c 2.59375,0 4.75,-1.0156254 6.46875,-3.0468754 0.875,2.03125 2.625,3.0468754 5.25,3.0468754 h 8.39063 c 2.5,0 4.4375,-0.5312504 5.8125,-1.5937504 1.40625,-1.09375 2.10937,-2.59375 2.10937,-4.5 0,-1.46875 -0.45312,-2.515625 -1.35937,-3.140625 -0.90625,-0.65625 -2.4375,-0.984375 -4.59375,-0.984375 h -5.4375 l 6.79687,-16.6875 c 0.8125,-2.03125 1.21875,-3.53125 1.21875,-4.5 0,-1.21875 -0.46875,-2.265625 -1.40625,-3.140625 -0.9375,-0.875 -2.0625,-1.3125 -3.375,-1.3125 -3.1875,0 -5.65625,2.1875 -7.40625,6.5625 l -5.85937,14.4375 c -1.28125,3.125 -3.85938,4.6875 -7.73438,4.6875 -1.875,0 -2.78125,-0.703125 -2.71875,-2.109375 0.0312,-0.40625 0.1875,-1.015625 0.46875,-1.828125 l 0.51563,-1.40625 4.92187,-12.046875 0.51563,-1.265625 c 0.5,-1.21875 0.75,-2.296875 0.75,-3.234375 0,-1.25 -0.46875,-2.296875 -1.40625,-3.140625 -0.9375,-0.875 -2.07813,-1.3125 -3.42188,-1.3125 z m 126.375,0 c -5.21875,0 -9.90625,2.375 -14.0625,7.125 -4.125,4.71875 -6.1875,10.078125 -6.1875,16.078125 0,3.96875 1.04688,7.1875 3.14063,9.65625 2.125,2.4375 4.90625,3.6562504 8.34375,3.6562504 h 5.34375 c 2.1875,0 4.45312,-1.0468754 6.79687,-3.1406254 0.96875,2.09375 2.79688,3.1406254 5.48438,3.1406254 h 6 c 2.46875,0 4.40625,-0.5312504 5.8125,-1.5937504 1.40625,-1.09375 2.10937,-2.59375 2.10937,-4.5 0,-2.75 -1.96875,-4.125 -5.90625,-4.125 h -5.15625 l 6.75,-16.6875 0.51563,-1.265625 c 0.5,-1.21875 0.75,-2.265625 0.75,-3.140625 0,-1.28125 -0.46875,-2.359375 -1.40625,-3.234375 -0.90625,-0.875 -2.04688,-1.3125 -3.42188,-1.3125 -2.53125,0 -4.57812,1.171875 -6.14062,3.515625 -1.84375,-2.78125 -4.76563,-4.171875 -8.76563,-4.171875 z m 0.70313,9.46875 c 1.15625,0 2.14062,0.3125 2.95312,0.9375 0.84375,0.625 1.26563,1.359375 1.26563,2.203125 0,0.71875 -0.21875,1.609375 -0.65625,2.671875 l -3.28125,8.109375 c -0.84375,2.09375 -2.54688,3.140625 -5.10938,3.140625 h -1.17187 c -2.59375,0 -3.89063,-1.609375 -3.89063,-4.828125 0,-2.84375 1.07813,-5.59375 3.23438,-8.25 2.15625,-2.65625 4.375,-3.984375 6.65625,-3.984375 z"
       transform="matrix(0.26458333,0,0,0.26458333,64.751299,109.38815)" />
  </g>
</svg>
