<?xml version="1.0" encoding="UTF-8" standalone="no"?>
<!-- Created with Inkscape (http://www.inkscape.org/) -->

<svg
   width="228.31093mm"
   height="35.746346mm"
   viewBox="0 0 228.31093 35.746346"
   version="1.1"
   id="svg1533"
   inkscape:version="1.1.1 (3bf5ae0d25, 2021-09-20)"
   sodipodi:docname="otron.svg"
   xmlns:inkscape="http://www.inkscape.org/namespaces/inkscape"
   xmlns:sodipodi="http://sodipodi.sourceforge.net/DTD/sodipodi-0.dtd"
   xmlns:xlink="http://www.w3.org/1999/xlink"
   xmlns="http://www.w3.org/2000/svg"
   xmlns:svg="http://www.w3.org/2000/svg">
  <sodipodi:namedview
     id="namedview1535"
     pagecolor="#505050"
     bordercolor="#ffffff"
     borderopacity="1"
     inkscape:pageshadow="0"
     inkscape:pageopacity="0"
     inkscape:pagecheckerboard="1"
     inkscape:document-units="mm"
     showgrid="false"
     showborder="false"
     inkscape:zoom="0.77682379"
     inkscape:cx="447.33439"
     inkscape:cy="44.411616"
     inkscape:window-width="1366"
     inkscape:window-height="705"
     inkscape:window-x="-8"
     inkscape:window-y="-8"
     inkscape:window-maximized="1"
     inkscape:current-layer="layer1" />
  <defs
     id="defs1530">
    <inkscape:path-effect
       effect="offset"
       id="path-effect9606"
       is_visible="true"
       lpeversion="1"
       linejoin_type="miter"
       unit="mm"
       offset="1"
       miter_limit="4"
       attempt_force_join="false"
       update_on_knot_move="true" />
    <inkscape:path-effect
       effect="offset"
       id="path-effect9602"
       is_visible="true"
       lpeversion="1"
       linejoin_type="miter"
       unit="mm"
       offset="1"
       miter_limit="4"
       attempt_force_join="false"
       update_on_knot_move="true" />
    <inkscape:path-effect
       effect="offset"
       id="path-effect9598"
       is_visible="true"
       lpeversion="1"
       linejoin_type="miter"
       unit="mm"
       offset="1"
       miter_limit="4"
       attempt_force_join="false"
       update_on_knot_move="true" />
    <inkscape:path-effect
       effect="offset"
       id="path-effect9568"
       is_visible="true"
       lpeversion="1"
       linejoin_type="miter"
       unit="mm"
       offset="1"
       miter_limit="4"
       attempt_force_join="false"
       update_on_knot_move="true" />
    <inkscape:path-effect
       effect="offset"
       id="path-effect9564"
       is_visible="true"
       lpeversion="1"
       linejoin_type="miter"
       unit="mm"
       offset="1"
       miter_limit="4"
       attempt_force_join="false"
       update_on_knot_move="true" />
    <inkscape:path-effect
       effect="offset"
       id="path-effect9560"
       is_visible="true"
       lpeversion="1"
       linejoin_type="miter"
       unit="mm"
       offset="1"
       miter_limit="4"
       attempt_force_join="false"
       update_on_knot_move="true" />
    <inkscape:path-effect
       effect="offset"
       id="path-effect9518"
       is_visible="true"
       lpeversion="1"
       linejoin_type="miter"
       unit="mm"
       offset="1"
       miter_limit="4"
       attempt_force_join="false"
       update_on_knot_move="true" />
    <inkscape:path-effect
       effect="offset"
       id="path-effect9514"
       is_visible="true"
       lpeversion="1"
       linejoin_type="miter"
       unit="mm"
       offset="1"
       miter_limit="4"
       attempt_force_join="false"
       update_on_knot_move="true" />
    <inkscape:path-effect
       effect="offset"
       id="path-effect9510"
       is_visible="true"
       lpeversion="1"
       linejoin_type="miter"
       unit="mm"
       offset="1"
       miter_limit="4"
       attempt_force_join="false"
       update_on_knot_move="true" />
    <inkscape:path-effect
       effect="offset"
       id="path-effect9464"
       is_visible="true"
       lpeversion="1"
       linejoin_type="miter"
       unit="mm"
       offset="1"
       miter_limit="4"
       attempt_force_join="false"
       update_on_knot_move="true" />
    <inkscape:path-effect
       effect="offset"
       id="path-effect9450"
       is_visible="true"
       lpeversion="1"
       linejoin_type="miter"
       unit="mm"
       offset="1"
       miter_limit="4"
       attempt_force_join="false"
       update_on_knot_move="true" />
    <inkscape:path-effect
       effect="clone_original"
       id="path-effect9433"
       is_visible="true"
       lpeversion="1"
       linkeditem=""
       method="d"
       attributes=""
       css_properties="shadow"
       allow_transforms="true" />
    <inkscape:path-effect
       effect="offset"
       id="path-effect3329"
       is_visible="true"
       lpeversion="1"
       linejoin_type="miter"
       unit="mm"
       offset="1"
       miter_limit="4"
       attempt_force_join="false"
       update_on_knot_move="true" />
    <inkscape:path-effect
       effect="ruler"
       id="path-effect3327"
       is_visible="true"
       lpeversion="1"
       unit="px"
       mark_distance="24.1"
       mark_length="40"
       minor_mark_length="35"
       major_mark_steps="22"
       shift="17"
       offset="0"
       mark_dir="both"
       border_marks="end" />
    <linearGradient
       inkscape:collect="always"
       id="linearGradient2345">
      <stop
         style="stop-color:#3db2ff;stop-opacity:1"
         offset="0"
         id="stop2341" />
      <stop
         style="stop-color:#ffedda;stop-opacity:0;"
         offset="1"
         id="stop2343" />
    </linearGradient>
    <linearGradient
       inkscape:collect="always"
       xlink:href="#linearGradient2345"
       id="linearGradient2347"
       x1="49.55677"
       y1="77.315376"
       x2="50.748852"
       y2="105.07397"
       gradientUnits="userSpaceOnUse" />
    <linearGradient
       inkscape:collect="always"
       xlink:href="#linearGradient2345"
       id="linearGradient9452"
       gradientUnits="userSpaceOnUse"
       x1="49.55677"
       y1="77.315376"
       x2="50.748852"
       y2="105.07397" />
    <linearGradient
       inkscape:collect="always"
       xlink:href="#linearGradient2345"
       id="linearGradient9466"
       gradientUnits="userSpaceOnUse"
       x1="49.55677"
       y1="77.315376"
       x2="50.748852"
       y2="105.07397" />
    <linearGradient
       inkscape:collect="always"
       xlink:href="#linearGradient2345"
       id="linearGradient9526"
       gradientUnits="userSpaceOnUse"
       x1="49.55677"
       y1="77.315376"
       x2="50.748852"
       y2="105.07397" />
    <linearGradient
       inkscape:collect="always"
       xlink:href="#linearGradient2345"
       id="linearGradient9528"
       gradientUnits="userSpaceOnUse"
       x1="49.55677"
       y1="77.315376"
       x2="50.748852"
       y2="105.07397" />
    <linearGradient
       inkscape:collect="always"
       xlink:href="#linearGradient2345"
       id="linearGradient9530"
       gradientUnits="userSpaceOnUse"
       x1="49.55677"
       y1="77.315376"
       x2="50.748852"
       y2="105.07397" />
    <linearGradient
       inkscape:collect="always"
       xlink:href="#linearGradient2345"
       id="linearGradient9608"
       gradientUnits="userSpaceOnUse"
       x1="49.55677"
       y1="77.315376"
       x2="50.748852"
       y2="105.07397" />
    <linearGradient
       inkscape:collect="always"
       xlink:href="#linearGradient2345"
       id="linearGradient9610"
       gradientUnits="userSpaceOnUse"
       x1="49.55677"
       y1="77.315376"
       x2="50.748852"
       y2="105.07397" />
    <linearGradient
       inkscape:collect="always"
       xlink:href="#linearGradient2345"
       id="linearGradient9612"
       gradientUnits="userSpaceOnUse"
       x1="49.55677"
       y1="77.315376"
       x2="50.748852"
       y2="105.07397" />
    <linearGradient
       inkscape:collect="always"
       xlink:href="#linearGradient2345"
       id="linearGradient9614"
       gradientUnits="userSpaceOnUse"
       x1="49.55677"
       y1="77.315376"
       x2="50.748852"
       y2="105.07397" />
    <linearGradient
       inkscape:collect="always"
       xlink:href="#linearGradient2345"
       id="linearGradient9616"
       gradientUnits="userSpaceOnUse"
       x1="49.55677"
       y1="77.315376"
       x2="50.748852"
       y2="105.07397" />
    <linearGradient
       inkscape:collect="always"
       xlink:href="#linearGradient2345"
       id="linearGradient9618"
       gradientUnits="userSpaceOnUse"
       x1="49.55677"
       y1="77.315376"
       x2="50.748852"
       y2="105.07397" />
  </defs>
  <g
     inkscape:label="Layer 1"
     inkscape:groupmode="layer"
     id="layer1"
     transform="translate(87.682604,-72.136181)">
    <g
       id="g9480"
       transform="translate(14.645643,-11.920872)">
      <g
         id="g9438">
        <path
           id="path3325"
           style="fill:#ebd0d0;fill-opacity:1;stroke-width:2.03858;paint-order:markers stroke fill"
           d="m 54.271484,84.660156 c -7.863535,-10e-7 -14.230469,6.364797 -14.230468,14.228516 -10e-7,7.863718 6.366749,14.230468 14.230468,14.230468 7.863717,0 14.228517,-6.36693 14.228516,-14.230468 10e-7,-7.863533 -6.364983,-14.228511 -14.228516,-14.228516 z m 0,6.513672 c 4.256734,3e-6 7.714844,3.458113 7.714844,7.714844 -3e-6,4.256728 -3.458393,7.716798 -7.714844,7.716798 -4.256451,0 -7.716793,-3.46035 -7.716796,-7.716798 0,-4.256455 3.460063,-7.714844 7.716796,-7.714844 z"
           inkscape:path-effect="#path-effect3329"
           inkscape:original-d="M 54.27077,85.660004 A 13.229167,13.229167 0 0 0 41.041601,98.889172 13.229167,13.229167 0 0 0 54.27077,112.11834 13.229167,13.229167 0 0 0 67.49993,98.889172 13.229167,13.229167 0 0 0 54.27077,85.660004 Z m 0,4.512903 a 8.7162655,8.7162655 0 0 1 8.71626,8.716265 8.7162655,8.7162655 0 0 1 -8.71626,8.716258 8.7162655,8.7162655 0 0 1 -8.716265,-8.716258 8.7162655,8.7162655 0 0 1 8.716265,-8.716265 z" />
        <path
           id="path1616"
           style="fill:#ff2442;stroke-width:2.03858;paint-order:markers stroke fill"
           d="M 54.27077,85.660004 A 13.229167,13.229167 0 0 0 41.041602,98.889171 13.229167,13.229167 0 0 0 54.27077,112.11834 13.229167,13.229167 0 0 0 67.499936,98.889171 13.229167,13.229167 0 0 0 54.27077,85.660004 Z m 0,4.512903 a 8.7162655,8.7162655 0 0 1 8.716261,8.716264 8.7162655,8.7162655 0 0 1 -8.716261,8.716259 8.7162655,8.7162655 0 0 1 -8.716264,-8.716259 8.7162655,8.7162655 0 0 1 8.716264,-8.716264 z" />
        <path
           id="path2309"
           style="fill:url(#linearGradient9614);fill-opacity:1;stroke-width:2.03858;paint-order:markers stroke fill"
           d="M 54.27077,85.660004 A 13.229167,13.229167 0 0 0 41.041602,98.889171 13.229167,13.229167 0 0 0 54.27077,112.11834 13.229167,13.229167 0 0 0 67.499936,98.889171 13.229167,13.229167 0 0 0 54.27077,85.660004 Z m 0,4.512903 a 8.7162655,8.7162655 0 0 1 8.716261,8.716264 8.7162655,8.7162655 0 0 1 -8.716261,8.716259 8.7162655,8.7162655 0 0 1 -8.716264,-8.716259 8.7162655,8.7162655 0 0 1 8.716264,-8.716264 z" />
      </g>
      <g
         id="g9446"
         transform="matrix(0.61702489,0,0,0.61702489,60.463726,49.622847)">
        <path
           id="path9440"
           style="fill:#ebd0d0;fill-opacity:1;stroke-width:2.03858;paint-order:markers stroke fill"
           d="m 54.271484,84.039062 c -8.20942,-10e-7 -14.851563,6.639892 -14.851562,14.84961 -10e-7,8.209718 6.641844,14.851558 14.851562,14.851558 8.209716,0 14.849611,-6.64214 14.84961,-14.851558 10e-7,-8.209419 -6.640192,-14.849605 -14.84961,-14.84961 z m 0,7.75586 c 3.910937,2e-6 7.09375,3.182817 7.09375,7.09375 -3e-6,3.910938 -3.18327,7.095708 -7.09375,7.095708 -3.91048,0 -7.0957,-3.18523 -7.095703,-7.095708 0,-3.910485 3.184767,-7.09375 7.095703,-7.09375 z"
           inkscape:path-effect="#path-effect9450"
           inkscape:original-d="M 54.27077,85.660004 A 13.229167,13.229167 0 0 0 41.041601,98.889172 13.229167,13.229167 0 0 0 54.27077,112.11834 13.229167,13.229167 0 0 0 67.49993,98.889172 13.229167,13.229167 0 0 0 54.27077,85.660004 Z m 0,4.512903 a 8.7162655,8.7162655 0 0 1 8.71626,8.716265 8.7162655,8.7162655 0 0 1 -8.71626,8.716258 8.7162655,8.7162655 0 0 1 -8.716265,-8.716258 8.7162655,8.7162655 0 0 1 8.716265,-8.716265 z" />
        <path
           id="path9442"
           style="fill:#ff2442;stroke-width:2.03858;paint-order:markers stroke fill"
           d="M 54.27077,85.660004 A 13.229167,13.229167 0 0 0 41.041602,98.889171 13.229167,13.229167 0 0 0 54.27077,112.11834 13.229167,13.229167 0 0 0 67.499936,98.889171 13.229167,13.229167 0 0 0 54.27077,85.660004 Z m 0,4.512903 a 8.7162655,8.7162655 0 0 1 8.716261,8.716264 8.7162655,8.7162655 0 0 1 -8.716261,8.716259 8.7162655,8.7162655 0 0 1 -8.716264,-8.716259 8.7162655,8.7162655 0 0 1 8.716264,-8.716264 z" />
        <path
           id="path9444"
           style="fill:url(#linearGradient9616);fill-opacity:1;stroke-width:2.03858;paint-order:markers stroke fill"
           d="M 54.27077,85.660004 A 13.229167,13.229167 0 0 0 41.041602,98.889171 13.229167,13.229167 0 0 0 54.27077,112.11834 13.229167,13.229167 0 0 0 67.499936,98.889171 13.229167,13.229167 0 0 0 54.27077,85.660004 Z m 0,4.512903 a 8.7162655,8.7162655 0 0 1 8.716261,8.716264 8.7162655,8.7162655 0 0 1 -8.716261,8.716259 8.7162655,8.7162655 0 0 1 -8.716264,-8.716259 8.7162655,8.7162655 0 0 1 8.716264,-8.716264 z" />
      </g>
      <g
         id="g9460"
         transform="matrix(0.3762087,0,0,0.3762087,99.588562,52.830996)">
        <path
           id="path9454"
           style="fill:#ebd0d0;fill-opacity:1;stroke-width:2.03858;paint-order:markers stroke fill"
           d="m 54.271484,83.001953 c -8.78754,-10e-7 -15.888673,7.098691 -15.888672,15.886719 -1e-6,8.788028 7.100644,15.888668 15.888672,15.888668 8.788026,0 15.88672,-7.10113 15.886719,-15.888668 10e-7,-8.787539 -7.099181,-15.886714 -15.886719,-15.886719 z m 0,9.830078 c 3.332964,2e-6 6.056641,2.723682 6.056641,6.056641 -3e-6,3.332958 -2.724424,6.058598 -6.056641,6.058598 -3.332217,0 -6.058591,-2.72638 -6.058593,-6.058598 0,-3.332223 2.725631,-6.056641 6.058593,-6.056641 z"
           inkscape:path-effect="#path-effect9464"
           inkscape:original-d="M 54.27077,85.660004 A 13.229167,13.229167 0 0 0 41.041601,98.889172 13.229167,13.229167 0 0 0 54.27077,112.11834 13.229167,13.229167 0 0 0 67.49993,98.889172 13.229167,13.229167 0 0 0 54.27077,85.660004 Z m 0,4.512903 a 8.7162655,8.7162655 0 0 1 8.71626,8.716265 8.7162655,8.7162655 0 0 1 -8.71626,8.716258 8.7162655,8.7162655 0 0 1 -8.716265,-8.716258 8.7162655,8.7162655 0 0 1 8.716265,-8.716265 z" />
        <path
           id="path9456"
           style="fill:#ff2442;stroke-width:2.03858;paint-order:markers stroke fill"
           d="M 54.27077,85.660004 A 13.229167,13.229167 0 0 0 41.041602,98.889171 13.229167,13.229167 0 0 0 54.27077,112.11834 13.229167,13.229167 0 0 0 67.499936,98.889171 13.229167,13.229167 0 0 0 54.27077,85.660004 Z m 0,4.512903 a 8.7162655,8.7162655 0 0 1 8.716261,8.716264 8.7162655,8.7162655 0 0 1 -8.716261,8.716259 8.7162655,8.7162655 0 0 1 -8.716264,-8.716259 8.7162655,8.7162655 0 0 1 8.716264,-8.716264 z" />
        <path
           id="path9458"
           style="fill:url(#linearGradient9618);fill-opacity:1;stroke-width:2.03858;paint-order:markers stroke fill"
           d="M 54.27077,85.660004 A 13.229167,13.229167 0 0 0 41.041602,98.889171 13.229167,13.229167 0 0 0 54.27077,112.11834 13.229167,13.229167 0 0 0 67.499936,98.889171 13.229167,13.229167 0 0 0 54.27077,85.660004 Z m 0,4.512903 a 8.7162655,8.7162655 0 0 1 8.716261,8.716264 8.7162655,8.7162655 0 0 1 -8.716261,8.716259 8.7162655,8.7162655 0 0 1 -8.716264,-8.716259 8.7162655,8.7162655 0 0 1 8.716264,-8.716264 z" />
      </g>
    </g>
    <g
       id="g9506"
       transform="translate(14.645643,-11.920872)">
      <g
         id="g9488">
        <path
           id="path9482"
           style="fill:#ebd0d0;fill-opacity:1;stroke-width:2.03858;paint-order:markers stroke fill"
           d="m 54.271484,84.660156 c -7.863535,-10e-7 -14.230469,6.364797 -14.230468,14.228516 -10e-7,7.863718 6.366749,14.230468 14.230468,14.230468 7.863717,0 14.228517,-6.36693 14.228516,-14.230468 10e-7,-7.863533 -6.364983,-14.228511 -14.228516,-14.228516 z m 0,6.513672 c 4.256734,3e-6 7.714844,3.458113 7.714844,7.714844 -3e-6,4.256728 -3.458393,7.716798 -7.714844,7.716798 -4.256451,0 -7.716793,-3.46035 -7.716796,-7.716798 0,-4.256455 3.460063,-7.714844 7.716796,-7.714844 z"
           inkscape:path-effect="#path-effect9510"
           inkscape:original-d="M 54.27077,85.660004 A 13.229167,13.229167 0 0 0 41.041601,98.889172 13.229167,13.229167 0 0 0 54.27077,112.11834 13.229167,13.229167 0 0 0 67.49993,98.889172 13.229167,13.229167 0 0 0 54.27077,85.660004 Z m 0,4.512903 a 8.7162655,8.7162655 0 0 1 8.71626,8.716265 8.7162655,8.7162655 0 0 1 -8.71626,8.716258 8.7162655,8.7162655 0 0 1 -8.716265,-8.716258 8.7162655,8.7162655 0 0 1 8.716265,-8.716265 z" />
        <path
           id="path9484"
           style="fill:#ff2442;stroke-width:2.03858;paint-order:markers stroke fill"
           d="M 54.27077,85.660004 A 13.229167,13.229167 0 0 0 41.041602,98.889171 13.229167,13.229167 0 0 0 54.27077,112.11834 13.229167,13.229167 0 0 0 67.499936,98.889171 13.229167,13.229167 0 0 0 54.27077,85.660004 Z m 0,4.512903 a 8.7162655,8.7162655 0 0 1 8.716261,8.716264 8.7162655,8.7162655 0 0 1 -8.716261,8.716259 8.7162655,8.7162655 0 0 1 -8.716264,-8.716259 8.7162655,8.7162655 0 0 1 8.716264,-8.716264 z" />
        <path
           id="path9486"
           style="fill:url(#linearGradient2347);fill-opacity:1;stroke-width:2.03858;paint-order:markers stroke fill"
           d="M 54.27077,85.660004 A 13.229167,13.229167 0 0 0 41.041602,98.889171 13.229167,13.229167 0 0 0 54.27077,112.11834 13.229167,13.229167 0 0 0 67.499936,98.889171 13.229167,13.229167 0 0 0 54.27077,85.660004 Z m 0,4.512903 a 8.7162655,8.7162655 0 0 1 8.716261,8.716264 8.7162655,8.7162655 0 0 1 -8.716261,8.716259 8.7162655,8.7162655 0 0 1 -8.716264,-8.716259 8.7162655,8.7162655 0 0 1 8.716264,-8.716264 z" />
      </g>
      <g
         id="g9496"
         transform="matrix(0.61702489,0,0,0.61702489,60.463726,49.622847)">
        <path
           id="path9490"
           style="fill:#ebd0d0;fill-opacity:1;stroke-width:2.03858;paint-order:markers stroke fill"
           d="m 54.271484,84.039062 c -8.20942,-10e-7 -14.851563,6.639892 -14.851562,14.84961 -10e-7,8.209718 6.641844,14.851558 14.851562,14.851558 8.209716,0 14.849611,-6.64214 14.84961,-14.851558 10e-7,-8.209419 -6.640192,-14.849605 -14.84961,-14.84961 z m 0,7.75586 c 3.910937,2e-6 7.09375,3.182817 7.09375,7.09375 -3e-6,3.910938 -3.18327,7.095708 -7.09375,7.095708 -3.91048,0 -7.0957,-3.18523 -7.095703,-7.095708 0,-3.910485 3.184767,-7.09375 7.095703,-7.09375 z"
           inkscape:path-effect="#path-effect9514"
           inkscape:original-d="M 54.27077,85.660004 A 13.229167,13.229167 0 0 0 41.041601,98.889172 13.229167,13.229167 0 0 0 54.27077,112.11834 13.229167,13.229167 0 0 0 67.49993,98.889172 13.229167,13.229167 0 0 0 54.27077,85.660004 Z m 0,4.512903 a 8.7162655,8.7162655 0 0 1 8.71626,8.716265 8.7162655,8.7162655 0 0 1 -8.71626,8.716258 8.7162655,8.7162655 0 0 1 -8.716265,-8.716258 8.7162655,8.7162655 0 0 1 8.716265,-8.716265 z" />
        <path
           id="path9492"
           style="fill:#ff2442;stroke-width:2.03858;paint-order:markers stroke fill"
           d="M 54.27077,85.660004 A 13.229167,13.229167 0 0 0 41.041602,98.889171 13.229167,13.229167 0 0 0 54.27077,112.11834 13.229167,13.229167 0 0 0 67.499936,98.889171 13.229167,13.229167 0 0 0 54.27077,85.660004 Z m 0,4.512903 a 8.7162655,8.7162655 0 0 1 8.716261,8.716264 8.7162655,8.7162655 0 0 1 -8.716261,8.716259 8.7162655,8.7162655 0 0 1 -8.716264,-8.716259 8.7162655,8.7162655 0 0 1 8.716264,-8.716264 z" />
        <path
           id="path9494"
           style="fill:url(#linearGradient9452);fill-opacity:1;stroke-width:2.03858;paint-order:markers stroke fill"
           d="M 54.27077,85.660004 A 13.229167,13.229167 0 0 0 41.041602,98.889171 13.229167,13.229167 0 0 0 54.27077,112.11834 13.229167,13.229167 0 0 0 67.499936,98.889171 13.229167,13.229167 0 0 0 54.27077,85.660004 Z m 0,4.512903 a 8.7162655,8.7162655 0 0 1 8.716261,8.716264 8.7162655,8.7162655 0 0 1 -8.716261,8.716259 8.7162655,8.7162655 0 0 1 -8.716264,-8.716259 8.7162655,8.7162655 0 0 1 8.716264,-8.716264 z" />
      </g>
      <g
         id="g9504"
         transform="matrix(0.3762087,0,0,0.3762087,99.588562,52.830996)">
        <path
           id="path9498"
           style="fill:#ebd0d0;fill-opacity:1;stroke-width:2.03858;paint-order:markers stroke fill"
           d="m 54.271484,83.001953 c -8.78754,-10e-7 -15.888673,7.098691 -15.888672,15.886719 -1e-6,8.788028 7.100644,15.888668 15.888672,15.888668 8.788026,0 15.88672,-7.10113 15.886719,-15.888668 10e-7,-8.787539 -7.099181,-15.886714 -15.886719,-15.886719 z m 0,9.830078 c 3.332964,2e-6 6.056641,2.723682 6.056641,6.056641 -3e-6,3.332958 -2.724424,6.058598 -6.056641,6.058598 -3.332217,0 -6.058591,-2.72638 -6.058593,-6.058598 0,-3.332223 2.725631,-6.056641 6.058593,-6.056641 z"
           inkscape:path-effect="#path-effect9518"
           inkscape:original-d="M 54.27077,85.660004 A 13.229167,13.229167 0 0 0 41.041601,98.889172 13.229167,13.229167 0 0 0 54.27077,112.11834 13.229167,13.229167 0 0 0 67.49993,98.889172 13.229167,13.229167 0 0 0 54.27077,85.660004 Z m 0,4.512903 a 8.7162655,8.7162655 0 0 1 8.71626,8.716265 8.7162655,8.7162655 0 0 1 -8.71626,8.716258 8.7162655,8.7162655 0 0 1 -8.716265,-8.716258 8.7162655,8.7162655 0 0 1 8.716265,-8.716265 z" />
        <path
           id="path9500"
           style="fill:#ff2442;stroke-width:2.03858;paint-order:markers stroke fill"
           d="M 54.27077,85.660004 A 13.229167,13.229167 0 0 0 41.041602,98.889171 13.229167,13.229167 0 0 0 54.27077,112.11834 13.229167,13.229167 0 0 0 67.499936,98.889171 13.229167,13.229167 0 0 0 54.27077,85.660004 Z m 0,4.512903 a 8.7162655,8.7162655 0 0 1 8.716261,8.716264 8.7162655,8.7162655 0 0 1 -8.716261,8.716259 8.7162655,8.7162655 0 0 1 -8.716264,-8.716259 8.7162655,8.7162655 0 0 1 8.716264,-8.716264 z" />
        <path
           id="path9502"
           style="fill:url(#linearGradient9466);fill-opacity:1;stroke-width:2.03858;paint-order:markers stroke fill"
           d="M 54.27077,85.660004 A 13.229167,13.229167 0 0 0 41.041602,98.889171 13.229167,13.229167 0 0 0 54.27077,112.11834 13.229167,13.229167 0 0 0 67.499936,98.889171 13.229167,13.229167 0 0 0 54.27077,85.660004 Z m 0,4.512903 a 8.7162655,8.7162655 0 0 1 8.716261,8.716264 8.7162655,8.7162655 0 0 1 -8.716261,8.716259 8.7162655,8.7162655 0 0 1 -8.716264,-8.716259 8.7162655,8.7162655 0 0 1 8.716264,-8.716264 z" />
      </g>
    </g>
    <g
       id="g9556"
       transform="translate(14.645643,-11.920872)">
      <g
         id="g9538">
        <path
           id="path9532"
           style="fill:#ebd0d0;fill-opacity:1;stroke-width:2.03858;paint-order:markers stroke fill"
           d="m 54.271484,84.660156 c -7.863535,-10e-7 -14.230469,6.364797 -14.230468,14.228516 -10e-7,7.863718 6.366749,14.230468 14.230468,14.230468 7.863717,0 14.228517,-6.36693 14.228516,-14.230468 10e-7,-7.863533 -6.364983,-14.228511 -14.228516,-14.228516 z m 0,6.513672 c 4.256734,3e-6 7.714844,3.458113 7.714844,7.714844 -3e-6,4.256728 -3.458393,7.716798 -7.714844,7.716798 -4.256451,0 -7.716793,-3.46035 -7.716796,-7.716798 0,-4.256455 3.460063,-7.714844 7.716796,-7.714844 z"
           inkscape:path-effect="#path-effect9560"
           inkscape:original-d="M 54.27077,85.660004 A 13.229167,13.229167 0 0 0 41.041601,98.889172 13.229167,13.229167 0 0 0 54.27077,112.11834 13.229167,13.229167 0 0 0 67.49993,98.889172 13.229167,13.229167 0 0 0 54.27077,85.660004 Z m 0,4.512903 a 8.7162655,8.7162655 0 0 1 8.71626,8.716265 8.7162655,8.7162655 0 0 1 -8.71626,8.716258 8.7162655,8.7162655 0 0 1 -8.716265,-8.716258 8.7162655,8.7162655 0 0 1 8.716265,-8.716265 z" />
        <path
           id="path9534"
           style="fill:#ff2442;stroke-width:2.03858;paint-order:markers stroke fill"
           d="M 54.27077,85.660004 A 13.229167,13.229167 0 0 0 41.041602,98.889171 13.229167,13.229167 0 0 0 54.27077,112.11834 13.229167,13.229167 0 0 0 67.499936,98.889171 13.229167,13.229167 0 0 0 54.27077,85.660004 Z m 0,4.512903 a 8.7162655,8.7162655 0 0 1 8.716261,8.716264 8.7162655,8.7162655 0 0 1 -8.716261,8.716259 8.7162655,8.7162655 0 0 1 -8.716264,-8.716259 8.7162655,8.7162655 0 0 1 8.716264,-8.716264 z" />
        <path
           id="path9536"
           style="fill:url(#linearGradient9526);fill-opacity:1;stroke-width:2.03858;paint-order:markers stroke fill"
           d="M 54.27077,85.660004 A 13.229167,13.229167 0 0 0 41.041602,98.889171 13.229167,13.229167 0 0 0 54.27077,112.11834 13.229167,13.229167 0 0 0 67.499936,98.889171 13.229167,13.229167 0 0 0 54.27077,85.660004 Z m 0,4.512903 a 8.7162655,8.7162655 0 0 1 8.716261,8.716264 8.7162655,8.7162655 0 0 1 -8.716261,8.716259 8.7162655,8.7162655 0 0 1 -8.716264,-8.716259 8.7162655,8.7162655 0 0 1 8.716264,-8.716264 z" />
      </g>
      <g
         id="g9546"
         transform="matrix(0.61702489,0,0,0.61702489,60.463726,49.622847)">
        <path
           id="path9540"
           style="fill:#ebd0d0;fill-opacity:1;stroke-width:2.03858;paint-order:markers stroke fill"
           d="m 54.271484,84.039062 c -8.20942,-10e-7 -14.851563,6.639892 -14.851562,14.84961 -10e-7,8.209718 6.641844,14.851558 14.851562,14.851558 8.209716,0 14.849611,-6.64214 14.84961,-14.851558 10e-7,-8.209419 -6.640192,-14.849605 -14.84961,-14.84961 z m 0,7.75586 c 3.910937,2e-6 7.09375,3.182817 7.09375,7.09375 -3e-6,3.910938 -3.18327,7.095708 -7.09375,7.095708 -3.91048,0 -7.0957,-3.18523 -7.095703,-7.095708 0,-3.910485 3.184767,-7.09375 7.095703,-7.09375 z"
           inkscape:path-effect="#path-effect9564"
           inkscape:original-d="M 54.27077,85.660004 A 13.229167,13.229167 0 0 0 41.041601,98.889172 13.229167,13.229167 0 0 0 54.27077,112.11834 13.229167,13.229167 0 0 0 67.49993,98.889172 13.229167,13.229167 0 0 0 54.27077,85.660004 Z m 0,4.512903 a 8.7162655,8.7162655 0 0 1 8.71626,8.716265 8.7162655,8.7162655 0 0 1 -8.71626,8.716258 8.7162655,8.7162655 0 0 1 -8.716265,-8.716258 8.7162655,8.7162655 0 0 1 8.716265,-8.716265 z" />
        <path
           id="path9542"
           style="fill:#ff2442;stroke-width:2.03858;paint-order:markers stroke fill"
           d="M 54.27077,85.660004 A 13.229167,13.229167 0 0 0 41.041602,98.889171 13.229167,13.229167 0 0 0 54.27077,112.11834 13.229167,13.229167 0 0 0 67.499936,98.889171 13.229167,13.229167 0 0 0 54.27077,85.660004 Z m 0,4.512903 a 8.7162655,8.7162655 0 0 1 8.716261,8.716264 8.7162655,8.7162655 0 0 1 -8.716261,8.716259 8.7162655,8.7162655 0 0 1 -8.716264,-8.716259 8.7162655,8.7162655 0 0 1 8.716264,-8.716264 z" />
        <path
           id="path9544"
           style="fill:url(#linearGradient9528);fill-opacity:1;stroke-width:2.03858;paint-order:markers stroke fill"
           d="M 54.27077,85.660004 A 13.229167,13.229167 0 0 0 41.041602,98.889171 13.229167,13.229167 0 0 0 54.27077,112.11834 13.229167,13.229167 0 0 0 67.499936,98.889171 13.229167,13.229167 0 0 0 54.27077,85.660004 Z m 0,4.512903 a 8.7162655,8.7162655 0 0 1 8.716261,8.716264 8.7162655,8.7162655 0 0 1 -8.716261,8.716259 8.7162655,8.7162655 0 0 1 -8.716264,-8.716259 8.7162655,8.7162655 0 0 1 8.716264,-8.716264 z" />
      </g>
      <g
         id="g9554"
         transform="matrix(0.3762087,0,0,0.3762087,99.588562,52.830996)">
        <path
           id="path9548"
           style="fill:#ebd0d0;fill-opacity:1;stroke-width:2.03858;paint-order:markers stroke fill"
           d="m 54.271484,83.001953 c -8.78754,-10e-7 -15.888673,7.098691 -15.888672,15.886719 -1e-6,8.788028 7.100644,15.888668 15.888672,15.888668 8.788026,0 15.88672,-7.10113 15.886719,-15.888668 10e-7,-8.787539 -7.099181,-15.886714 -15.886719,-15.886719 z m 0,9.830078 c 3.332964,2e-6 6.056641,2.723682 6.056641,6.056641 -3e-6,3.332958 -2.724424,6.058598 -6.056641,6.058598 -3.332217,0 -6.058591,-2.72638 -6.058593,-6.058598 0,-3.332223 2.725631,-6.056641 6.058593,-6.056641 z"
           inkscape:path-effect="#path-effect9568"
           inkscape:original-d="M 54.27077,85.660004 A 13.229167,13.229167 0 0 0 41.041601,98.889172 13.229167,13.229167 0 0 0 54.27077,112.11834 13.229167,13.229167 0 0 0 67.49993,98.889172 13.229167,13.229167 0 0 0 54.27077,85.660004 Z m 0,4.512903 a 8.7162655,8.7162655 0 0 1 8.71626,8.716265 8.7162655,8.7162655 0 0 1 -8.71626,8.716258 8.7162655,8.7162655 0 0 1 -8.716265,-8.716258 8.7162655,8.7162655 0 0 1 8.716265,-8.716265 z" />
        <path
           id="path9550"
           style="fill:#ff2442;stroke-width:2.03858;paint-order:markers stroke fill"
           d="M 54.27077,85.660004 A 13.229167,13.229167 0 0 0 41.041602,98.889171 13.229167,13.229167 0 0 0 54.27077,112.11834 13.229167,13.229167 0 0 0 67.499936,98.889171 13.229167,13.229167 0 0 0 54.27077,85.660004 Z m 0,4.512903 a 8.7162655,8.7162655 0 0 1 8.716261,8.716264 8.7162655,8.7162655 0 0 1 -8.716261,8.716259 8.7162655,8.7162655 0 0 1 -8.716264,-8.716259 8.7162655,8.7162655 0 0 1 8.716264,-8.716264 z" />
        <path
           id="path9552"
           style="fill:url(#linearGradient9530);fill-opacity:1;stroke-width:2.03858;paint-order:markers stroke fill"
           d="M 54.27077,85.660004 A 13.229167,13.229167 0 0 0 41.041602,98.889171 13.229167,13.229167 0 0 0 54.27077,112.11834 13.229167,13.229167 0 0 0 67.499936,98.889171 13.229167,13.229167 0 0 0 54.27077,85.660004 Z m 0,4.512903 a 8.7162655,8.7162655 0 0 1 8.716261,8.716264 8.7162655,8.7162655 0 0 1 -8.716261,8.716259 8.7162655,8.7162655 0 0 1 -8.716264,-8.716259 8.7162655,8.7162655 0 0 1 8.716264,-8.716264 z" />
      </g>
    </g>
    <g
       id="g9594"
       transform="matrix(-1,0,0,1,38.300084,-11.920872)">
      <g
         id="g9576">
        <path
           id="path9570"
           style="fill:#ebd0d0;fill-opacity:1;stroke-width:2.03858;paint-order:markers stroke fill"
           d="m 54.271484,84.660156 c -7.863535,-10e-7 -14.230469,6.364797 -14.230468,14.228516 -10e-7,7.863718 6.366749,14.230468 14.230468,14.230468 7.863717,0 14.228517,-6.36693 14.228516,-14.230468 10e-7,-7.863533 -6.364983,-14.228511 -14.228516,-14.228516 z m 0,6.513672 c 4.256734,3e-6 7.714844,3.458113 7.714844,7.714844 -3e-6,4.256728 -3.458393,7.716798 -7.714844,7.716798 -4.256451,0 -7.716793,-3.46035 -7.716796,-7.716798 0,-4.256455 3.460063,-7.714844 7.716796,-7.714844 z"
           inkscape:path-effect="#path-effect9598"
           inkscape:original-d="M 54.27077,85.660004 A 13.229167,13.229167 0 0 0 41.041601,98.889172 13.229167,13.229167 0 0 0 54.27077,112.11834 13.229167,13.229167 0 0 0 67.49993,98.889172 13.229167,13.229167 0 0 0 54.27077,85.660004 Z m 0,4.512903 a 8.7162655,8.7162655 0 0 1 8.71626,8.716265 8.7162655,8.7162655 0 0 1 -8.71626,8.716258 8.7162655,8.7162655 0 0 1 -8.716265,-8.716258 8.7162655,8.7162655 0 0 1 8.716265,-8.716265 z" />
        <path
           id="path9572"
           style="fill:#ff2442;stroke-width:2.03858;paint-order:markers stroke fill"
           d="M 54.27077,85.660004 A 13.229167,13.229167 0 0 0 41.041602,98.889171 13.229167,13.229167 0 0 0 54.27077,112.11834 13.229167,13.229167 0 0 0 67.499936,98.889171 13.229167,13.229167 0 0 0 54.27077,85.660004 Z m 0,4.512903 a 8.7162655,8.7162655 0 0 1 8.716261,8.716264 8.7162655,8.7162655 0 0 1 -8.716261,8.716259 8.7162655,8.7162655 0 0 1 -8.716264,-8.716259 8.7162655,8.7162655 0 0 1 8.716264,-8.716264 z" />
        <path
           id="path9574"
           style="fill:url(#linearGradient9608);fill-opacity:1;stroke-width:2.03858;paint-order:markers stroke fill"
           d="M 54.27077,85.660004 A 13.229167,13.229167 0 0 0 41.041602,98.889171 13.229167,13.229167 0 0 0 54.27077,112.11834 13.229167,13.229167 0 0 0 67.499936,98.889171 13.229167,13.229167 0 0 0 54.27077,85.660004 Z m 0,4.512903 a 8.7162655,8.7162655 0 0 1 8.716261,8.716264 8.7162655,8.7162655 0 0 1 -8.716261,8.716259 8.7162655,8.7162655 0 0 1 -8.716264,-8.716259 8.7162655,8.7162655 0 0 1 8.716264,-8.716264 z" />
      </g>
      <g
         id="g9584"
         transform="matrix(0.61702489,0,0,0.61702489,60.463726,49.622847)">
        <path
           id="path9578"
           style="fill:#ebd0d0;fill-opacity:1;stroke-width:2.03858;paint-order:markers stroke fill"
           d="m 54.271484,84.039062 c -8.20942,-10e-7 -14.851563,6.639892 -14.851562,14.84961 -10e-7,8.209718 6.641844,14.851558 14.851562,14.851558 8.209716,0 14.849611,-6.64214 14.84961,-14.851558 10e-7,-8.209419 -6.640192,-14.849605 -14.84961,-14.84961 z m 0,7.75586 c 3.910937,2e-6 7.09375,3.182817 7.09375,7.09375 -3e-6,3.910938 -3.18327,7.095708 -7.09375,7.095708 -3.91048,0 -7.0957,-3.18523 -7.095703,-7.095708 0,-3.910485 3.184767,-7.09375 7.095703,-7.09375 z"
           inkscape:path-effect="#path-effect9602"
           inkscape:original-d="M 54.27077,85.660004 A 13.229167,13.229167 0 0 0 41.041601,98.889172 13.229167,13.229167 0 0 0 54.27077,112.11834 13.229167,13.229167 0 0 0 67.49993,98.889172 13.229167,13.229167 0 0 0 54.27077,85.660004 Z m 0,4.512903 a 8.7162655,8.7162655 0 0 1 8.71626,8.716265 8.7162655,8.7162655 0 0 1 -8.71626,8.716258 8.7162655,8.7162655 0 0 1 -8.716265,-8.716258 8.7162655,8.7162655 0 0 1 8.716265,-8.716265 z" />
        <path
           id="path9580"
           style="fill:#ff2442;stroke-width:2.03858;paint-order:markers stroke fill"
           d="M 54.27077,85.660004 A 13.229167,13.229167 0 0 0 41.041602,98.889171 13.229167,13.229167 0 0 0 54.27077,112.11834 13.229167,13.229167 0 0 0 67.499936,98.889171 13.229167,13.229167 0 0 0 54.27077,85.660004 Z m 0,4.512903 a 8.7162655,8.7162655 0 0 1 8.716261,8.716264 8.7162655,8.7162655 0 0 1 -8.716261,8.716259 8.7162655,8.7162655 0 0 1 -8.716264,-8.716259 8.7162655,8.7162655 0 0 1 8.716264,-8.716264 z" />
        <path
           id="path9582"
           style="fill:url(#linearGradient9610);fill-opacity:1;stroke-width:2.03858;paint-order:markers stroke fill"
           d="M 54.27077,85.660004 A 13.229167,13.229167 0 0 0 41.041602,98.889171 13.229167,13.229167 0 0 0 54.27077,112.11834 13.229167,13.229167 0 0 0 67.499936,98.889171 13.229167,13.229167 0 0 0 54.27077,85.660004 Z m 0,4.512903 a 8.7162655,8.7162655 0 0 1 8.716261,8.716264 8.7162655,8.7162655 0 0 1 -8.716261,8.716259 8.7162655,8.7162655 0 0 1 -8.716264,-8.716259 8.7162655,8.7162655 0 0 1 8.716264,-8.716264 z" />
      </g>
      <g
         id="g9592"
         transform="matrix(0.3762087,0,0,0.3762087,99.588562,52.830996)">
        <path
           id="path9586"
           style="fill:#ebd0d0;fill-opacity:1;stroke-width:2.03858;paint-order:markers stroke fill"
           d="m 54.271484,83.001953 c -8.78754,-10e-7 -15.888673,7.098691 -15.888672,15.886719 -1e-6,8.788028 7.100644,15.888668 15.888672,15.888668 8.788026,0 15.88672,-7.10113 15.886719,-15.888668 10e-7,-8.787539 -7.099181,-15.886714 -15.886719,-15.886719 z m 0,9.830078 c 3.332964,2e-6 6.056641,2.723682 6.056641,6.056641 -3e-6,3.332958 -2.724424,6.058598 -6.056641,6.058598 -3.332217,0 -6.058591,-2.72638 -6.058593,-6.058598 0,-3.332223 2.725631,-6.056641 6.058593,-6.056641 z"
           inkscape:path-effect="#path-effect9606"
           inkscape:original-d="M 54.27077,85.660004 A 13.229167,13.229167 0 0 0 41.041601,98.889172 13.229167,13.229167 0 0 0 54.27077,112.11834 13.229167,13.229167 0 0 0 67.49993,98.889172 13.229167,13.229167 0 0 0 54.27077,85.660004 Z m 0,4.512903 a 8.7162655,8.7162655 0 0 1 8.71626,8.716265 8.7162655,8.7162655 0 0 1 -8.71626,8.716258 8.7162655,8.7162655 0 0 1 -8.716265,-8.716258 8.7162655,8.7162655 0 0 1 8.716265,-8.716265 z" />
        <path
           id="path9588"
           style="fill:#ff2442;stroke-width:2.03858;paint-order:markers stroke fill"
           d="M 54.27077,85.660004 A 13.229167,13.229167 0 0 0 41.041602,98.889171 13.229167,13.229167 0 0 0 54.27077,112.11834 13.229167,13.229167 0 0 0 67.499936,98.889171 13.229167,13.229167 0 0 0 54.27077,85.660004 Z m 0,4.512903 a 8.7162655,8.7162655 0 0 1 8.716261,8.716264 8.7162655,8.7162655 0 0 1 -8.716261,8.716259 8.7162655,8.7162655 0 0 1 -8.716264,-8.716259 8.7162655,8.7162655 0 0 1 8.716264,-8.716264 z" />
        <path
           id="path9590"
           style="fill:url(#linearGradient9612);fill-opacity:1;stroke-width:2.03858;paint-order:markers stroke fill"
           d="M 54.27077,85.660004 A 13.229167,13.229167 0 0 0 41.041602,98.889171 13.229167,13.229167 0 0 0 54.27077,112.11834 13.229167,13.229167 0 0 0 67.499936,98.889171 13.229167,13.229167 0 0 0 54.27077,85.660004 Z m 0,4.512903 a 8.7162655,8.7162655 0 0 1 8.716261,8.716264 8.7162655,8.7162655 0 0 1 -8.716261,8.716259 8.7162655,8.7162655 0 0 1 -8.716264,-8.716259 8.7162655,8.7162655 0 0 1 8.716264,-8.716264 z" />
      </g>
    </g>
  </g>
</svg>
